PathFileType	4	(X/Y/Z)	\\147.46.242.158\로컬 디스크 (e)\MOCAP Data\Iguana Capture\iguana\Project 2\Capture day 6 after broken\Session 2\Take05 good walk.trc
DataRate	CameraRate	NumFrames	NumMarkers	Units	OrigDataRate	OrigDataStartFrame	OrigNumFrames
120.0	120.0	8	23	mm	120.0	176	5093
Frame#	Time	ana:head1			ana:head2			ana:bone1			ana:bone2			ana:bone3			ana:tail1			ana:tail2			ana:tail3			ana:tail4			ana:Rforefoot1			ana:Rforefoot2			ana:Rforefoot3			ana:Lforefoot1			ana:Lforefoot2			ana:Lforefoot3			ana:RhindLeg1			ana:RhindLeg2			ana:RhindLeg3			ana:RhindLeg4			ana:LhindLeg1			ana:LhindLeg2			ana:LhindLeg3			ana:LhindLeg4			
		X1	Y1	Z1	X2	Y2	Z2	X3	Y3	Z3	X4	Y4	Z4	X5	Y5	Z5	X6	Y6	Z6	X7	Y7	Z7	X8	Y8	Z8	X9	Y9	Z9	X10	Y10	Z10	X11	Y11	Z11	X12	Y12	Z12	X13	Y13	Z13	X14	Y14	Z14	X15	Y15	Z15	X16	Y16	Z16	X17	Y17	Z17	X18	Y18	Z18	X19	Y19	Z19	X20	Y20	Z20	X21	Y21	Z21	X22	Y22	Z22	X23	Y23	Z23	

4175	34.783	-445.60199	-94.29187	52.98266	-442.71182	-84.18571	53.93783	-436.56653	-63.80376	46.94840	-429.03329	-37.74805	44.81829	-428.09210	-1.24135	37.17801	-424.22437	30.67269	29.62294	-419.54874	63.24917	19.66706	-410.35916	106.83313	11.25767	-405.10739	140.08131	9.85956	-449.07361	-61.32556	31.46163	-457.16190	-51.33606	21.97708	-454.44623	-61.09628	8.50513	-427.01489	-72.83161	34.93055	-413.20673	-72.59061	36.01145	-411.50815	-85.75050	26.25144	-435.51337	1.28533	31.67542	-449.91827	7.92774	31.38568	-451.59613	28.07008	26.55727	-458.42352	35.81757	17.20043	-416.39639	-1.49405	29.85933	-400.45602	-4.09126	23.34233	-403.28143	8.63698	10.37450	-398.48502	-3.06096	7.97639	
4176	34.792	-445.86118	-94.74094	53.00339	-443.02576	-84.61629	54.08437	-436.77020	-64.26390	46.98363	-429.03903	-38.26799	44.81239	-428.14371	-1.79391	37.09041	-424.56445	30.15978	29.51934	-419.87253	62.70457	19.56332	-410.54034	106.26299	11.23040	-405.19748	139.50644	9.87352	-449.23978	-61.61678	31.48581	-457.11508	-51.44211	21.96096	-454.58716	-61.18422	8.69342	-427.28015	-73.51619	34.75541	-413.54260	-74.08194	35.75114	-412.46158	-87.73135	26.52805	-435.68918	0.45341	31.61349	-450.39896	6.25851	31.63355	-451.73267	26.19203	26.33954	-459.42953	33.41245	17.43196	-416.46298	-1.92698	29.79250	-400.46439	-4.11170	23.29762	-403.29153	8.69409	10.39394	-398.46515	-3.00788	7.98854	
4177	34.800	-446.12097	-95.19550	53.01902	-443.32541	-85.04829	54.18618	-436.97498	-64.73198	47.00687	-429.06198	-38.78554	44.81638	-428.21848	-2.34938	37.00801	-424.95245	29.65144	29.40792	-420.22745	62.16454	19.47734	-410.73257	105.69318	11.21387	-405.28741	138.92584	9.87955	-449.38867	-61.92508	31.47976	-457.06360	-51.55312	21.92614	-454.71002	-61.28042	8.86879	-427.52878	-74.16905	34.56293	-413.91357	-75.59111	35.44597	-413.36804	-89.56992	26.68688	-435.90082	-0.39511	31.54852	-450.87726	4.48051	31.88360	-451.94901	24.17763	26.08041	-460.56079	30.71406	17.68298	-416.55551	-2.35035	29.73867	-400.50360	-4.14340	23.26210	-403.31039	8.76252	10.41100	-398.44226	-2.95339	8.00692	
4178	34.808	-446.37946	-95.66200	53.02855	-443.60992	-85.48772	54.23952	-437.18097	-65.21206	47.01717	-429.10254	-39.30569	44.82909	-428.31409	-2.91064	36.93222	-425.38596	29.14099	29.28958	-420.61417	61.62508	19.40859	-410.93988	105.12003	11.20705	-405.37842	138.33618	9.87785	-449.52292	-62.25168	31.44813	-457.00983	-51.67244	21.88225	-454.80835	-61.38467	9.02540	-427.76782	-74.79705	34.37417	-414.32886	-77.12184	35.09764	-414.23245	-91.29805	26.72878	-436.14502	-1.26143	31.48486	-451.33865	2.60183	32.13418	-452.26028	22.03627	25.78457	-461.78726	27.72845	17.95511	-416.67343	-2.76867	29.69761	-400.57217	-4.19013	23.23412	-403.34055	8.83570	10.42185	-398.42068	-2.90650	8.02911	
4179	34.817	-446.63525	-96.14532	53.03189	-443.88016	-85.93931	54.24570	-437.38858	-65.70639	47.01498	-429.16055	-39.83279	44.84821	-428.42719	-3.47980	36.86327	-425.85883	28.62210	29.16530	-421.03073	61.08214	19.35492	-411.16470	104.54020	11.20812	-405.47147	137.73483	9.86967	-449.64694	-62.59600	31.39791	-456.95654	-51.80334	21.84134	-454.87885	-61.49557	9.15988	-428.00671	-75.40866	34.21104	-414.79776	-78.67522	34.70884	-415.06998	-92.94886	26.66081	-436.41620	-2.14577	31.42695	-451.76810	0.63541	32.38388	-452.67719	19.77926	25.45883	-463.07111	24.47100	18.24944	-416.81516	-3.18656	29.66780	-400.66776	-4.25386	23.21161	-403.38345	8.90656	10.42340	-398.40448	-2.87421	8.05280	
4180	34.825	-446.88800	-96.64815	53.02987	-444.13885	-86.40624	54.21069	-437.59860	-66.21551	47.00199	-429.23547	-40.37025	44.87057	-428.55347	-4.05814	36.80042	-426.36227	28.08938	29.03633	-421.47290	60.53197	19.31302	-411.40781	103.95094	11.21467	-405.56723	137.12018	9.85709	-449.76614	-62.95594	31.33752	-456.90695	-51.94880	21.81636	-454.92163	-61.61030	9.27126	-428.25595	-76.01298	34.09389	-415.32864	-80.24911	34.28387	-415.90314	-94.55289	26.49545	-436.70676	-3.04732	31.37881	-452.15079	-1.40186	32.63131	-453.20520	17.41818	25.11159	-464.36871	20.96523	18.56575	-416.97830	-3.60829	29.64687	-400.78720	-4.33468	23.19235	-403.43930	8.96840	10.41395	-398.39639	-2.86054	8.07596	
4181	34.833	-447.13852	-97.17093	53.02398	-444.38980	-86.88998	54.14421	-437.81177	-66.73854	46.98080	-429.32605	-40.92049	44.89275	-428.68857	-4.64618	36.74224	-426.88577	27.53871	28.90444	-421.93436	59.97142	19.27901	-411.66840	103.35019	11.22409	-405.66617	136.49142	9.84284	-449.88629	-63.32847	31.27575	-456.86389	-52.11128	21.81950	-454.94000	-61.72465	9.36062	-428.52618	-76.61878	34.03915	-415.92798	-81.83791	33.82885	-416.75818	-96.13474	26.24921	-437.00772	-3.96449	31.34355	-452.47327	-3.49034	32.87485	-453.84372	14.96336	24.75208	-465.63403	17.24125	18.90155	-417.15976	-4.03738	29.63203	-400.92715	-4.43105	23.17435	-403.50668	9.01567	10.39366	-398.39774	-2.86611	8.09684	
4182	34.842	-447.38861	-97.71204	53.01603	-444.63770	-87.39055	54.05824	-438.02875	-67.27376	46.95451	-429.43088	-41.48500	44.91151	-428.82846	-5.24384	36.68709	-427.41833	26.96747	28.77197	-422.40802	59.39795	19.24905	-411.94421	102.73656	11.23386	-405.76886	135.84842	9.82989	-450.01233	-63.71019	31.22076	-456.82962	-52.29265	21.86051	-454.93961	-61.83332	9.43046	-428.82617	-77.23357	34.05731	-416.59982	-83.43263	33.35162	-417.66034	-97.71089	25.94060	-437.30954	-4.89520	31.32301	-452.72452	-5.60919	33.11239	-454.58575	12.42286	24.38932	-466.82184	13.33393	19.25101	-417.35605	-4.47651	29.62052	-401.08405	-4.54024	23.15614	-403.58313	9.04454	10.36474	-398.40839	-2.88818	8.11406	
